# xmcd
#
# Track frame offsets:
#	150
#	19015
#	41257
#	58325
#	74122
#	93020
#	110620
#	128295
#	147290
#	168030
#	183860
#	207260
#	226377
#	241207
#
# Disc length: 3449 seconds
#
# Revision: 1
# Processed by: cddbd v1.4PL0 Copyright (c) Steve Scherf et al.
# Submitted via: audiograbber 1.80
#
DISCID=b50d770e
DTITLE=Roch Voisine - Chaque Feu
DYEAR=1900
DGENRE=
TTITLE0=Je resterai là
TTITLE1=Au bout de la piste
TTITLE2=Juste pour soi
TTITLE3=Doucement
TTITLE4=La seconde chance
TTITLE5=J'ai l'espoir
TTITLE6=Un simple gars
TTITLE7=Juste un peu de temps
TTITLE8=Mourir les sirènes
TTITLE9=Les lys blancs
TTITLE10=Avant vous
TTITLE11=Chaque feu
TTITLE12=J'ai pas confiance
TTITLE13=Et si ...
EXTD=
EXTT0=
EXTT1=
EXTT2=
EXTT3=
EXTT4=
EXTT5=
EXTT6=
EXTT7=
EXTT8=
EXTT9=
EXTT10=
EXTT11=
EXTT12=
EXTT13=
PLAYORDER=
